<svg xmlns="http://www.w3.org/2000/svg" viewBox="-3 0 32 32"  xmlns:v="https://vecta.io/nano">
<defs>
                          <linearGradient id="grad1" x1="0%" y1="0%" x2="0%" y2="130%">
                                <stop offset="0%" style="stop-color:rgb(246, 135, 65);stop-opacity:1" />
                                <stop offset="50%" style="stop-color:rgb(73, 29, 136);stop-opacity:1" />
                                <stop offset="60%" style="stop-color:rgb(239, 1, 149);stop-opacity:1" />
                                <stop offset="80%" style="stop-color:rgb(246, 135, 65);stop-opacity:1" />
                          </linearGradient>
                        </defs>

<path d="M14 0h-2c-1.1 0-2 .9-2 2v28c0 1.1.9 2 2 2h2c1.1 0 2-.9 2-2V2c0-1.1-.9-2-2-2zm0 29a.94.94 0 0 1-1 1 .94.94 0 0 1-1-1V3a.94.94 0 0 1 1-1 .94.94 0 0 1 1 1v26zM4 9H2c-1.1 0-2 .9-2 2v19c0 1.1.9 2 2 2h2c1.1 0 2-.9 2-2V11c0-1.1-.9-2-2-2zm0 20a.94.94 0 0 1-1 1 .94.94 0 0 1-1-1V12a.94.94 0 0 1 1-1 .94.94 0 0 1 1 1v17zm20-13h-2c-1.1 0-2 .9-2 2v12c0 1.1.9 2 2 2h2c1.1 0 2-.9 2-2V18c0-1.1-.9-2-2-2zm0 13a.94.94 0 0 1-1 1 .94.94 0 0 1-1-1V19a.94.94 0 0 1 1-1 .94.94 0 0 1 1 1v10z" fill="url(#grad1)" stroke="rgb(16, 19, 58)" stroke-width="0.5%"/></svg>