<svg xmlns="http://www.w3.org/2000/svg" viewBox="0 0 34 34"  xmlns:v="https://vecta.io/nano">
<defs>
                          <linearGradient id="grad1" x1="0%" y1="0%" x2="0%" y2="130%">
                                  <stop offset="0%" style="stop-color:rgb(246, 135, 65);stop-opacity:1" />
                                <stop offset="40%" style="stop-color:rgb(73, 29, 136);stop-opacity:1" />
                                <stop offset="60%" style="stop-color:rgb(239, 1, 149);stop-opacity:1" />
                          </linearGradient>
                        </defs>

<path d="M18 16.4c1.3-1.7 2-3.9 2-6.4 0-5.5-4-10-9-10S2 4.5 2 10c0 2.4.8 4.6 2 6.4-2.3.8-4 3-4 5.6v4a6.02 6.02 0 0 0 6 6h10a6.02 6.02 0 0 0 6-6v-4c0-2.6-1.7-4.8-4-5.6zM4 10c0-4.4 3.1-8 7-8s7 3.6 7 8-3.1 8-7 8-7-3.6-7-8zm16 15.5c0 2.5-2.2 4.5-4.9 4.5H6.9C4.2 30 2 28 2 25.5v-3c0-2.1 1.6-3.9 3.8-4.4A7.91 7.91 0 0 0 11 20a7.91 7.91 0 0 0 5.2-1.9c2.2.5 3.8 2.2 3.8 4.4v3zM23 8h8a.94.94 0 0 0 1-1 .94.94 0 0 0-1-1h-8a.94.94 0 0 0-1 1 .94.94 0 0 0 1 1zm8 16h-6a.94.94 0 0 0-1 1 .94.94 0 0 0 1 1h6a.94.94 0 0 0 1-1 .94.94 0 0 0-1-1zm0-12h-8a.94.94 0 0 0-1 1 .94.94 0 0 0 1 1h8a.94.94 0 0 0 1-1 .94.94 0 0 0-1-1zm0 6h-6a.94.94 0 0 0-1 1 .94.94 0 0 0 1 1h6a.94.94 0 0 0 1-1 .94.94 0 0 0-1-1z" fill="url(#grad1)" stroke="rgb(16, 19, 58)" stroke-width="0.5%"/></svg>