<svg xmlns="http://www.w3.org/2000/svg" viewBox="0 0 34 34"  xmlns:v="https://vecta.io/nano">
<defs>
                          <linearGradient id="grad1" x1="0%" y1="0%" x2="0%" y2="130%">
                                 <stop offset="0%" style="stop-color:rgb(246, 135, 65);stop-opacity:1" />
                                <stop offset="40%" style="stop-color:rgb(73, 29, 136);stop-opacity:1" />
                                <stop offset="60%" style="stop-color:rgb(239, 1, 149);stop-opacity:1" />
                          </linearGradient>
                        </defs>
<path d="M26 24H14.9c-.4-1.7-2-3-3.9-3s-3.4 1.3-3.9 3H6a.94.94 0 0 0-1 1 .94.94 0 0 0 1 1h1.1c.4 1.7 2 3 3.9 3s3.4-1.3 3.9-3H26a.94.94 0 0 0 1-1 .94.94 0 0 0-1-1zm-15 3.4c-1.3 0-2.4-1.1-2.4-2.4s1.1-2.4 2.4-2.4 2.4 1.1 2.4 2.4-1.1 2.4-2.4 2.4zM26 8H14.9c-.4-1.7-2-3-3.9-3S7.6 6.3 7.1 8H6a.94.94 0 0 0-1 1 .94.94 0 0 0 1 1h1.1c.4 1.7 2 3 3.9 3s3.4-1.3 3.9-3H26a.94.94 0 0 0 1-1 .94.94 0 0 0-1-1zm-15 3.4c-1.3 0-2.4-1.1-2.4-2.4S9.7 6.6 11 6.6s2.4 1.1 2.4 2.4-1.1 2.4-2.4 2.4zM26 16h-2.1c-.4-1.7-2-3-3.9-3s-3.4 1.3-3.9 3H6a.94.94 0 0 0-1 1 .94.94 0 0 0 1 1h10.1c.4 1.7 2 3 3.9 3s3.4-1.3 3.9-3H26a.94.94 0 0 0 1-1 .94.94 0 0 0-1-1zm-6 3.4c-1.3 0-2.4-1.1-2.4-2.4s1.1-2.4 2.4-2.4 2.4 1.1 2.4 2.4-1.1 2.4-2.4 2.4zM28 0H4C1.8 0 0 1.8 0 4v24c0 2.2 1.8 4 4 4h24c2.2 0 4-1.8 4-4V4c0-2.2-1.8-4-4-4zm2 28c0 1.1-.9 2-2 2H4c-1.1 0-2-.9-2-2V4c0-1.1.9-2 2-2h24c1.1 0 2 .9 2 2v24z" fill="url(#grad1)" stroke="rgb(16, 19, 58)" stroke-width="0.5%"/></svg>