<svg xmlns="http://www.w3.org/2000/svg" viewBox="0 0 42 42"  xmlns:v="https://vecta.io/nano">

<path  d="M17.7 25.7c0-.3 0-.5-.1-.8-.1-.2-.1-.5-.2-.7s-.2-.4-.3-.7c-.2-.2-.3-.4-.4-.6s-.3-.3-.5-.6l-.5-.5c-.1-.1-.3-.3-.6-.5s-.5-.4-.6-.4-.3-.2-.6-.4-.5-.4-.6-.4h-1l-2 .1c-.7.1-1.4.2-2.1.5-.7.2-1.3.5-1.9.9s-1 .8-1.3 1.4a4.65 4.65 0 0 0-.5 2.1c0 .9.2 1.7.7 2.3.5.7 1.1 1.2 1.8 1.6s1.5.7 2.3.9 1.6.3 2.4.3 1.5-.1 2.2-.2c.7-.2 1.3-.4 1.9-.8a3.16 3.16 0 0 0 1.4-1.4 4.65 4.65 0 0 0 .5-2.1zM15.4 9.1c0-.8-.1-1.6-.3-2.5a10.64 10.64 0 0 0-.9-2.5c-.4-.8-.9-1.5-1.6-2s-1.5-.8-2.3-.8c-1.2 0-2.1.4-2.8 1.3s-1 1.9-1 3.2c0 .6.1 1.2.2 1.9s.4 1.3.7 2 .7 1.3 1.1 1.8.9 1 1.5 1.3 1.2.5 1.9.5c1.2 0 2.1-.4 2.7-1.2.5-.7.8-1.7.8-3zM12.9 0h8.4l-2.6 1.5h-2.6a6.11 6.11 0 0 1 2.1 2.4c.5 1 .8 2.1.8 3.2 0 .9-.1 1.8-.4 2.5s-.7 1.3-1.1 1.8c-.4.4-.8.9-1.3 1.2l-1.1 1.2c-.3.4-.4.8-.4 1.3a1.93 1.93 0 0 0 .3 1c.2.3.5.6.8.9s.7.6 1.1.9.8.7 1.2 1.1.8.8 1.1 1.3.6 1 .8 1.6.3 1.3.3 2c0 2.1-.9 3.9-2.7 5.4-1.9 1.7-4.6 2.5-8.1 2.5-.8 0-1.5-.1-2.3-.2s-1.6-.3-2.3-.6c-.8-.3-1.5-.7-2.1-1.1s-1.1-1-1.5-1.7C1 27.6.8 26.9.8 26c0-.8.2-1.6.7-2.6.4-.8 1-1.5 1.8-2.1s1.8-1.1 2.8-1.4 2-.5 3-.7l2.9-.3c-.8-1.1-1.2-2-1.2-2.9v-.5c0-.1.1-.3.1-.4s.1-.2.2-.4.1-.3.1-.4c-.5.1-1 .1-1.3.1-1.9 0-3.5-.6-4.9-1.9S3 9.7 3 7.8C3 6 3.6 4.4 4.8 3A8.54 8.54 0 0 1 9.3.4c1.2-.3 2.4-.4 3.6-.4zm19.9 4.9v2.5h-4.9v4.9h-2.5V7.4h-4.9V4.9h4.9V0h2.5v4.9h4.9z"/></svg>